<svg width="545" height="417" viewBox="0 0 545 417" fill="none" xmlns="http://www.w3.org/2000/svg">
<path fill-rule="evenodd" clip-rule="evenodd" d="M295.163 0.70046C344.518 -4.69248 393.673 21.7485 429.456 56.1406C462.65 88.0438 469.635 135.85 481.925 180.202C493.601 222.336 513.309 265.704 498.975 307.01C484.739 348.035 445.583 374.5 407.345 395.125C372.98 413.661 334.21 417.533 295.163 416.944C256.693 416.364 220.96 406.496 185.417 391.777C138.637 372.405 81.1426 362.595 56.7899 318.232C31.5398 272.233 36.3185 211.16 60.7907 164.744C83.8716 120.967 140.08 111.717 180.639 83.3285C220.172 55.658 247.182 5.94326 295.163 0.70046Z" fill="#F2F2F2" fill-opacity="0.5"/>
<g clip-path="url(#clip0)">
<path d="M539.696 24H170.919C169.514 24.0012 168.167 24.5594 167.174 25.552C166.181 26.5446 165.623 27.8905 165.621 29.2942V162.505H254.869C257.285 162.508 259.601 163.468 261.31 165.175C263.018 166.883 263.979 169.197 263.982 171.612V284.313H539.696C540.462 284.313 541.219 284.147 541.915 283.826C542.61 283.506 543.228 283.038 543.724 282.455C543.767 282.41 543.805 282.361 543.84 282.31C544.156 281.923 544.412 281.491 544.599 281.029C544.866 280.392 545.002 279.709 545 279.019V29.2942C544.999 27.8895 544.439 26.5429 543.445 25.5502C542.45 24.5575 541.102 23.9999 539.696 24V24Z" fill="#F2F2F2"/>
<path d="M544.239 45.22H166.375V46.7334H544.239V45.22Z" fill="#CCCCCC"/>
<path d="M179.248 39.8925C181.757 39.8925 183.792 37.8597 183.792 35.3522C183.792 32.8446 181.757 30.8118 179.248 30.8118C176.739 30.8118 174.705 32.8446 174.705 35.3522C174.705 37.8597 176.739 39.8925 179.248 39.8925Z" fill="#CCCCCC"/>
<path d="M192.311 39.8925C194.82 39.8925 196.854 37.8597 196.854 35.3522C196.854 32.8446 194.82 30.8118 192.311 30.8118C189.801 30.8118 187.767 32.8446 187.767 35.3522C187.767 37.8597 189.801 39.8925 192.311 39.8925Z" fill="#CCCCCC"/>
<path d="M205.373 39.8925C207.882 39.8925 209.916 37.8597 209.916 35.3522C209.916 32.8446 207.882 30.8118 205.373 30.8118C202.864 30.8118 200.829 32.8446 200.829 35.3522C200.829 37.8597 202.864 39.8925 205.373 39.8925Z" fill="#CCCCCC"/>
<path d="M450.084 78.2654H260.531C258.436 78.2654 256.427 79.0969 254.946 80.5771C253.465 82.0573 252.633 84.0648 252.633 86.1581C252.633 88.2514 253.465 90.2589 254.946 91.7391C256.427 93.2192 258.436 94.0508 260.531 94.0508H450.084C452.179 94.0508 454.187 93.2192 455.669 91.7391C457.15 90.2589 457.982 88.2514 457.982 86.1581C457.982 84.0648 457.15 82.0573 455.669 80.5771C454.187 79.0969 452.179 78.2654 450.084 78.2654V78.2654ZM450.084 92.8365H260.531C258.759 92.8365 257.059 92.1329 255.806 90.8804C254.552 89.628 253.848 87.9293 253.848 86.1581C253.848 84.3868 254.552 82.6882 255.806 81.4357C257.059 80.1833 258.759 79.4796 260.531 79.4796H450.084C451.856 79.4796 453.556 80.1833 454.809 81.4357C456.063 82.6882 456.767 84.3868 456.767 86.1581C456.767 87.9293 456.063 89.628 454.809 90.8804C453.556 92.1329 451.856 92.8365 450.084 92.8365Z" fill="#CCCCCC"/>
<path d="M508.086 141.146H318.533C316.439 141.146 314.43 141.977 312.949 143.458C311.467 144.938 310.635 146.945 310.635 149.039C310.635 151.132 311.467 153.139 312.949 154.62C314.43 156.1 316.439 156.931 318.533 156.931H508.086C510.181 156.931 512.19 156.1 513.671 154.62C515.152 153.139 515.984 151.132 515.984 149.039C515.984 146.945 515.152 144.938 513.671 143.458C512.19 141.977 510.181 141.146 508.086 141.146V141.146Z" fill="white"/>
<path d="M508.086 170.288H318.533C316.439 170.288 314.43 171.12 312.949 172.6C311.467 174.08 310.635 176.088 310.635 178.181C310.635 180.274 311.467 182.282 312.949 183.762C314.43 185.242 316.439 186.074 318.533 186.074H508.086C510.181 186.074 512.19 185.242 513.671 183.762C515.152 182.282 515.984 180.274 515.984 178.181C515.984 176.088 515.152 174.08 513.671 172.6C512.19 171.12 510.181 170.288 508.086 170.288V170.288Z" fill="white"/>
<path d="M508.086 199.43H318.533C316.439 199.43 314.43 200.262 312.949 201.742C311.467 203.222 310.635 205.23 310.635 207.323C310.635 209.416 311.467 211.424 312.949 212.904C314.43 214.384 316.439 215.216 318.533 215.216H508.086C510.181 215.216 512.19 214.384 513.671 212.904C515.152 211.424 515.984 209.416 515.984 207.323C515.984 205.23 515.152 203.222 513.671 201.742C512.19 200.262 510.181 199.43 508.086 199.43V199.43Z" fill="white"/>
<path d="M287.901 128.093H201.618C199.767 128.095 197.993 128.83 196.684 130.138C195.376 131.446 194.639 133.219 194.637 135.068V162.505H195.852V135.068C195.855 133.541 196.463 132.077 197.544 130.997C198.624 129.917 200.09 129.309 201.618 129.307H287.901C289.43 129.308 290.895 129.916 291.976 130.996C293.057 132.076 293.665 133.541 293.666 135.068V221.293C293.665 222.821 293.057 224.286 291.976 225.366C290.895 226.446 289.43 227.053 287.901 227.055H263.982V228.269H287.901C289.752 228.268 291.527 227.532 292.836 226.225C294.144 224.917 294.88 223.143 294.881 221.293V135.068C294.88 133.219 294.144 131.445 292.836 130.137C291.527 128.829 289.752 128.094 287.901 128.093V128.093Z" fill="#CCCCCC"/>
<path d="M64.1708 216.805C63.8655 216.817 50.8594 215.916 50.5273 215.905L51.6957 204.25L59.1037 204.027L73.2594 177.826C71.2961 174.085 73.712 169.121 77.8768 168.355C86.2693 166.449 89.1523 179.644 80.7342 181.4L69.0256 213.416C68.6582 214.408 67.9964 215.264 67.1288 215.87C66.2612 216.475 65.2291 216.802 64.1708 216.805V216.805Z" fill="#FFB8B8"/>
<path d="M29.8814 222.808C17.5048 222.838 16.4183 204.146 28.8224 202.829C61.6225 200.849 57.4718 192.616 59.9627 216.899C60.0392 217.62 59.8266 218.341 59.3716 218.905C58.9166 219.469 58.2564 219.829 57.5358 219.907L30.9557 222.751C30.5989 222.789 30.2403 222.808 29.8814 222.808V222.808Z" fill="#00B0FF"/>
<path d="M27.0568 163.71C44.1071 173.406 30.1096 198.988 12.7414 189.878C-4.3084 180.183 9.6891 154.6 27.0568 163.71Z" fill="#FFB8B8"/>
<path d="M42.5576 383.921L50.0055 383.92L53.5492 355.21L42.5564 355.211L42.5576 383.921Z" fill="#FFB8B8"/>
<path d="M40.9616 390.833L64.3706 390.832C64.2812 378.761 48.6242 382.239 40.9612 381.794L40.9616 390.833Z" fill="#2F2E41"/>
<path d="M10.3579 383.921L17.8057 383.92L21.3495 355.21L10.3567 355.211L10.3579 383.921Z" fill="#FFB8B8"/>
<path d="M8.76188 390.833L32.1709 390.832C32.0815 378.761 16.4245 382.239 8.76147 381.794L8.76188 390.833Z" fill="#2F2E41"/>
<path d="M18.8229 373.894C17.0227 373.4 7.24083 374.893 6.08639 372.934C2.05475 332.553 2.95093 293.034 11.9004 271.318L42.6712 269.436C49.5522 281.988 65.3691 365.286 55.8281 370.351L43.5591 370.788C42.8595 370.811 42.1733 370.592 41.6158 370.169C41.0583 369.746 40.6634 369.144 40.4975 368.465L30.2333 310.109C27.6772 306.539 22.6528 371.565 21.8231 371.322C21.7149 372.039 21.3523 372.694 20.8016 373.166C20.2508 373.638 19.5485 373.896 18.8229 373.894V373.894Z" fill="#2F2E41"/>
<path d="M10.9231 276.422C-4.61266 260.179 5.29707 216.633 4.79552 217.559C4.83808 216.492 8.35692 200.064 17.4594 197.368C24.681 194.986 32.6742 202.111 33.6601 209.316L44.4782 273.158C44.5342 273.506 44.5076 273.862 44.4006 274.197C44.2936 274.532 44.1093 274.838 43.8624 275.089C44.3943 276.744 11.6837 276.091 10.9231 276.422Z" fill="#00B0FF"/>
<path d="M15.965 175.135C17.3293 174.273 18.0018 172.795 18.7959 171.448C22.9791 169.066 27.788 174.829 32.2125 172.678C44.7234 160.676 31.8636 157.135 20.3409 156.502C17.6188 156.167 15.3033 157.132 13.2453 158.725C-9.77178 156.969 1.2669 187.554 15.7935 191.593C18.3583 192.716 20.2823 190.444 18.0204 188.378C14.8911 185.099 11.0145 178.5 15.965 175.135Z" fill="#2F2E41"/>
<rect x="78.0698" y="161.29" width="187.12" height="230.71" rx="10" fill="#F2F2F2"/>
<path d="M254.869 161.29H88.4027C85.6646 161.294 83.0399 162.383 81.1038 164.318C79.1677 166.252 78.0783 168.875 78.0745 171.612V381.679C78.0783 384.415 79.1677 387.038 81.1038 388.973C83.0399 390.907 85.6646 391.996 88.4027 392H254.869C257.607 391.996 260.232 390.907 262.168 388.973C264.104 387.038 265.193 384.415 265.197 381.679V171.612C265.193 168.875 264.104 166.252 262.168 164.318C260.232 162.383 257.607 161.294 254.869 161.29V161.29ZM263.982 381.679C263.979 384.093 263.018 386.408 261.31 388.115C259.601 389.822 257.285 390.783 254.869 390.786H88.4027C85.9866 390.783 83.6704 389.822 81.962 388.115C80.2536 386.408 79.2925 384.093 79.2895 381.679V171.612C79.2925 169.197 80.2536 166.883 81.962 165.175C83.6704 163.468 85.9866 162.508 88.4027 162.505H254.869C257.285 162.508 259.601 163.468 261.31 165.175C263.018 166.883 263.979 169.197 263.982 171.612V381.679Z" fill="#CCCCCC"/>
<path d="M41.4992 249.687C36.0127 250.308 33.604 237.549 31.5063 234.299L42.4329 230.059L45.9882 236.557L75.7748 237.297C75.9518 237.057 76.1451 236.83 76.3534 236.617V236.617C82.2606 230.436 91.8806 239.697 85.9958 245.865C85.3465 246.554 84.5584 247.098 83.6834 247.461C82.8084 247.824 81.8664 247.997 80.9194 247.97C79.9725 247.943 79.0421 247.715 78.1896 247.302C77.337 246.889 76.5817 246.301 75.9734 245.575C75.2378 245.627 42.2185 249.707 41.4992 249.687Z" fill="#FFB8B8"/>
<path d="M33.4074 243.597C31.5806 245.356 17.5562 220.664 16.5316 219.966C9.44508 208.959 26.1282 198.091 33.3368 209.039L47.916 231.429C48.3106 232.036 48.448 232.776 48.2979 233.484C48.1479 234.193 47.7227 234.813 47.1156 235.209C46.4512 235.52 33.8763 244.266 33.4074 243.597Z" fill="#00B0FF"/>
<path d="M222.062 306.698H121.21C110.908 306.649 110.865 290.967 121.211 290.913H222.062C232.357 290.961 232.413 306.644 222.062 306.698Z" fill="#CCCCCC"/>
<path d="M222.062 335.84H121.21C110.908 335.791 110.865 320.109 121.211 320.055H222.062C232.357 320.103 232.413 335.787 222.062 335.84Z" fill="#CCCCCC"/>
<path d="M222.062 364.983H121.21C110.908 364.933 110.865 349.251 121.211 349.197H222.062C232.357 349.246 232.413 364.929 222.062 364.983Z" fill="#CCCCCC"/>
<path d="M259.729 180.719C256.605 180.719 253.551 179.793 250.954 178.058C248.356 176.324 246.331 173.858 245.136 170.974C243.94 168.09 243.627 164.916 244.237 161.854C244.846 158.792 246.351 155.979 248.56 153.771C250.769 151.564 253.584 150.06 256.648 149.451C259.712 148.842 262.888 149.155 265.774 150.349C268.661 151.544 271.128 153.567 272.863 156.163C274.599 158.759 275.525 161.811 275.525 164.933C275.521 169.118 273.855 173.131 270.894 176.09C267.932 179.049 263.917 180.714 259.729 180.719V180.719Z" fill="#00B0FF"/>
<path d="M267.02 164.326H260.337V156.737C260.337 156.576 260.273 156.422 260.159 156.308C260.045 156.194 259.89 156.13 259.729 156.13C259.568 156.13 259.414 156.194 259.3 156.308C259.186 156.422 259.122 156.576 259.122 156.737V164.326H252.439C252.278 164.326 252.123 164.39 252.009 164.504C251.895 164.618 251.831 164.772 251.831 164.933C251.831 165.094 251.895 165.249 252.009 165.363C252.123 165.476 252.278 165.54 252.439 165.54H259.122V173.13C259.122 173.291 259.186 173.445 259.3 173.559C259.414 173.673 259.568 173.737 259.729 173.737C259.89 173.737 260.045 173.673 260.159 173.559C260.273 173.445 260.337 173.291 260.337 173.13V165.54H267.02C267.181 165.54 267.335 165.476 267.449 165.363C267.563 165.249 267.627 165.094 267.627 164.933C267.627 164.772 267.563 164.618 267.449 164.504C267.335 164.39 267.181 164.326 267.02 164.326Z" fill="white"/>
<path d="M220.239 271.97H123.032C120.375 271.967 117.827 270.911 115.947 269.033C114.068 267.155 113.011 264.608 113.008 261.953V207.554C113.011 204.898 114.068 202.352 115.947 200.474C117.827 198.596 120.375 197.539 123.032 197.536H220.239C222.897 197.539 225.445 198.596 227.324 200.474C229.203 202.352 230.26 204.898 230.263 207.554V261.953C230.26 264.608 229.203 267.155 227.324 269.033C225.445 270.911 222.897 271.967 220.239 271.97Z" fill="#00B0FF"/>
</g>
<defs>
<clipPath id="clip0">
<rect width="545" height="368" fill="white" transform="translate(0 24)"/>
</clipPath>
</defs>
</svg>
