<svg width="128" height="128" viewBox="0 0 128 128" fill="none" xmlns="http://www.w3.org/2000/svg">
<g clip-path="url(#clip0)">
<path d="M70.4614 38.7544C72.1722 38.7544 73.5591 37.3675 73.5591 35.6567C73.5591 33.9459 72.1722 32.5591 70.4614 32.5591C68.7506 32.5591 67.3638 33.9459 67.3638 35.6567C67.3638 37.3675 68.7506 38.7544 70.4614 38.7544Z" fill="url(#paint0_linear)"/>
<path d="M64.266 13.9731C42.0404 13.9731 23.9966 31.9395 23.9966 54.2426C23.9966 71.1247 34.5286 86.2258 50.3266 92.0338L61.7104 111.626C62.6397 113.02 64.5758 113.408 66.0471 112.478C66.3569 112.246 66.6667 111.936 66.899 111.626L78.2054 92.0338C99.1145 84.3672 109.801 61.2123 102.057 40.3031C96.2492 24.5051 81.1482 13.9731 64.266 13.9731ZM73.5589 44.4075V82.1214H70.4613C55.0505 82.1214 42.5825 69.6533 42.5825 54.2426V51.1449H51.8754C53.5791 51.1449 54.973 52.5388 54.973 54.2426C54.973 55.9463 53.5791 57.3402 51.8754 57.3402H49.0101C50.404 66.8655 57.8384 74.2998 67.3636 75.6938V44.4075C62.5623 42.7038 60.0067 37.3604 61.7104 32.559C63.4141 27.7577 68.7576 25.2021 73.5589 26.9058C78.3603 28.6095 80.9158 33.953 79.2121 38.7543C78.2828 41.3873 76.1919 43.4782 73.5589 44.4075Z" fill="url(#paint1_linear)"/>
</g>
<defs>
<linearGradient id="paint0_linear" x1="68.2746" y1="37.8742" x2="71.6671" y2="34.4816" gradientUnits="userSpaceOnUse">
<stop stop-color="#00B0FF"/>
<stop offset="1" stop-color="#00CAFD"/>
</linearGradient>
<linearGradient id="paint1_linear" x1="35.0355" y1="85.0573" x2="80.3339" y2="39.7589" gradientUnits="userSpaceOnUse">
<stop stop-color="#00B0FF"/>
<stop offset="1" stop-color="#00CAFD"/>
</linearGradient>
<clipPath id="clip0">
<rect width="80.6" height="99" fill="white" transform="translate(24 14)"/>
</clipPath>
</defs>
</svg>
